<?xml version="1.0" encoding="UTF-8" standalone="no"?><!DOCTYPE svg PUBLIC "-//W3C//DTD SVG 1.1//EN" "http://www.w3.org/Graphics/SVG/1.1/DTD/svg11.dtd"><svg width="100%" height="100%" viewBox="0 0 269 266" version="1.1" xmlns="http://www.w3.org/2000/svg" xmlns:xlink="http://www.w3.org/1999/xlink" xml:space="preserve" xmlns:serif="http://www.serif.com/" style="fill-rule:evenodd;clip-rule:evenodd;stroke-linejoin:round;stroke-miterlimit:2;"><path d="M147.996,25.225c42.444,-0 63.666,7.733 63.666,23.2c-0,8.633 -3.058,22.84 -9.173,42.623c-32.372,53.594 -65.104,91.542 -98.195,113.843c15.826,3.956 30.933,5.935 45.321,5.935c14.387,-0 27.786,-3.957 40.195,-11.87c12.41,-7.913 23.29,-16.726 32.642,-26.437c9.352,-9.712 17.176,-18.525 23.47,-26.438c6.295,-7.913 11.42,-11.87 15.377,-11.87c5.036,0 7.554,6.835 7.554,20.503c-0,13.668 -3.957,27.246 -11.87,40.735c-7.913,13.488 -18.884,25.448 -32.912,35.879c-30.934,23.02 -68.162,34.53 -111.684,34.53c-17.625,0 -32.912,-2.248 -45.861,-6.744c-12.949,-4.496 -22.211,-8.722 -27.786,-12.679c-5.575,-3.956 -8.363,-9.442 -8.363,-16.456c0,-7.014 1.259,-16.276 3.777,-27.786c5.395,-7.553 14.118,-15.826 26.167,-24.819c12.05,-8.992 24.1,-18.344 36.149,-28.056c12.05,-9.711 22.661,-19.423 31.833,-29.135c9.172,-9.711 13.758,-19.243 13.758,-28.595c0,-3.597 -8.452,-5.395 -25.358,-5.395l-89.024,4.855c-9.352,0 -16.276,-2.787 -20.772,-8.362c-4.496,-5.576 -6.744,-11.96 -6.744,-19.154c0,-16.546 6.205,-31.113 18.614,-43.702c12.409,-12.59 28.685,-19.064 48.828,-19.424c8.633,0 18.884,2.878 30.754,8.633c11.87,5.755 21.312,9.891 28.325,12.409c7.014,2.518 14.118,3.777 21.312,3.777Z" style="fill-rule:nonzero;"/></svg>